<?xml version="1.0" encoding="UTF-8"?>
<svg xmlns="http://www.w3.org/2000/svg" viewBox="0 0 250 150">
  <defs>
    <style>
      .cls-1 {
        fill: #fff;
      }
    </style>
  </defs>
  <g id="Background">
    <rect class="cls-1" width="250" height="150"/>
  </g>
  <g id="Typography">
    <path id="dot" d="M32.15,48.65c-.86-.81-1.89-1.21-3.08-1.21s-2.19.4-3.04,1.21c-.86.81-1.29,1.79-1.29,2.94s.43,2.13,1.29,2.95c.85.82,1.87,1.23,3.04,1.23s2.22-.41,3.08-1.23c.85-.82,1.28-1.81,1.28-2.95s-.43-2.13-1.28-2.94Z"/>
    <g id="index">
      <path d="M142.61,101.19l15.5-22.29-.04,4.78-14.66-21.3h7.31l4.92,7.56c1.2,1.85,2.26,3.6,3.2,5.26.94,1.65,1.9,3.26,2.88,4.83h-3.23c1.01-1.57,1.95-3.18,2.81-4.83.87-1.65,1.91-3.4,3.13-5.26l5.03-7.56h7.17l-14.73,21.52v-4.64l15.36,21.94h-7.28l-5.8-8.75c-1.17-1.8-2.21-3.5-3.13-5.1s-1.85-3.14-2.81-4.64h3.27c-.96,1.5-1.87,3.05-2.72,4.64s-1.88,3.29-3.08,5.1l-5.87,8.75h-7.24Z"/>
      <rect id="i" x="25.94" y="62.38" width="6.26" height="38.81"/>
      <path d="M43.67,78.06v23.13h-6.26v-38.81h6.01l.04,9.39h-1.05c1.2-3.56,2.89-6.11,5.1-7.65,2.2-1.53,4.79-2.3,7.77-2.3,2.62,0,4.94.54,6.94,1.63s3.57,2.73,4.71,4.92c1.14,2.19,1.71,4.95,1.71,8.28v24.54h-6.26v-24.05c0-3.05-.79-5.42-2.36-7.12-1.57-1.7-3.73-2.55-6.47-2.55-1.88,0-3.56.4-5.04,1.2-1.49.8-2.67,1.98-3.53,3.55-.87,1.57-1.3,3.52-1.3,5.84Z"/>
      <path d="M88.48,102c-3.26,0-6.13-.83-8.61-2.48s-4.42-3.98-5.82-7-2.09-6.57-2.09-10.67.7-7.62,2.09-10.62c1.39-3,3.34-5.32,5.84-6.96,2.5-1.64,5.36-2.46,8.6-2.46,2.34,0,4.27.38,5.77,1.14,1.5.76,2.7,1.66,3.59,2.69.89,1.03,1.59,1.98,2.11,2.85h.39v-19.69h6.26v52.38h-6.05v-5.98h-.56c-.54.89-1.27,1.86-2.18,2.92s-2.12,1.96-3.62,2.72-3.4,1.14-5.7,1.14ZM89.39,96.41c2.37,0,4.38-.62,6.03-1.85s2.91-2.94,3.78-5.13,1.3-4.73,1.3-7.61-.43-5.4-1.28-7.56c-.86-2.16-2.11-3.84-3.76-5.04-1.65-1.21-3.67-1.81-6.06-1.81s-4.41.62-6.06,1.86c-1.65,1.24-2.91,2.95-3.76,5.12s-1.28,4.65-1.28,7.44.43,5.29,1.28,7.49,2.12,3.94,3.78,5.2,3.68,1.9,6.05,1.9Z"/>
      <path d="M128.04,102.04c-3.75,0-6.98-.84-9.7-2.53s-4.8-4.03-6.26-7.03-2.18-6.48-2.18-10.44.72-7.46,2.16-10.51c1.44-3.05,3.48-5.43,6.12-7.14,2.64-1.71,5.7-2.57,9.19-2.57,2.2,0,4.32.37,6.36,1.11s3.87,1.9,5.48,3.48,2.89,3.62,3.83,6.1c.94,2.48,1.41,5.45,1.41,8.89v2.43h-30.52v-5.27h27.11l-2.85,1.9c0-2.55-.42-4.82-1.25-6.78s-2.05-3.51-3.66-4.62c-1.61-1.11-3.58-1.67-5.92-1.67s-4.32.56-5.99,1.69-2.96,2.62-3.85,4.48-1.34,3.91-1.34,6.13v3.3c0,2.84.49,5.26,1.46,7.28s2.36,3.55,4.15,4.61,3.88,1.58,6.28,1.58c1.59,0,3.03-.23,4.31-.7s2.37-1.16,3.29-2.07,1.61-2.04,2.07-3.38l6.08,1.34c-.59,2.04-1.61,3.84-3.06,5.41s-3.26,2.79-5.43,3.67-4.6,1.32-7.29,1.32Z"/>
    </g>
    <g id="IT">
      <path d="M183.16,48.81v52.38h-1.62v-52.38h1.62Z"/>
      <path d="M189.4,50.43v-1.62h36v1.62h-17.19v50.77h-1.62v-50.77h-17.19Z"/>
    </g>
  </g>
</svg>